<svg width="104" height="104" viewBox="0 0 104 104" fill="none" xmlns="http://www.w3.org/2000/svg">
<g clip-path="url(#clip0_4_2034)">
<g filter="url(#filter0_f_4_2034)">
<ellipse cx="64.3601" cy="37.32" rx="28" ry="29" fill="#FC9154" fill-opacity="0.4"/>
</g>
<path d="M81.3601 22.32C21.3601 22.32 13.3601 76.22 9.36011 99.32H17.3521C20.0161 86.488 26.6841 79.4271 37.3601 78.145C53.3601 76.22 65.3601 62.745 69.3601 51.195L63.3601 47.345L67.3601 43.495C71.3601 39.645 75.3761 33.87 81.3601 22.32Z" fill="#FAFAFA"/>
<path d="M88.317 16.4426C88.5495 15.8214 88.0166 15.6387 87.6914 16.2281V16.2281L86.9266 17.7701C85.8577 19.9251 83.7984 20.5602 83.3629 18.8692V18.8692L82.9837 16.9261C82.9213 16.6061 82.4917 16.8925 82.4743 17.2656V17.2656V17.2656C82.42 18.5082 82.5496 19.6469 82.8567 20.6252L83.3274 22.1253C83.5422 22.8098 83.5425 23.6788 83.3281 24.6101L82.913 26.414C82.909 26.4313 82.904 26.4487 82.898 26.4661V26.4661C82.606 27.3198 83.2959 27.6044 83.7926 26.8352L84.4066 25.8843C84.6641 25.4854 85.0397 25.3114 85.2551 25.4913L86.7979 26.7798C87.68 27.5165 89.2807 26.5577 90.1209 24.7894V24.7894C90.1878 24.6487 90.1704 24.5094 90.0828 24.4838L87.6563 23.7738C87.5168 23.733 87.3915 23.6615 87.284 23.5614V23.5614C86.5992 22.9235 86.471 21.5678 86.9465 20.103V20.103L88.317 16.4426Z" fill="url(#paint0_linear_4_2034)"/>
<path d="M88.317 16.4426C88.5495 15.8214 88.0166 15.6387 87.6914 16.2281V16.2281L86.9266 17.7701C85.8577 19.9251 83.7984 20.5602 83.3629 18.8692V18.8692L82.9837 16.9261C82.9213 16.6061 82.4917 16.8925 82.4743 17.2656V17.2656V17.2656C82.42 18.5082 82.5496 19.6469 82.8567 20.6252L83.3274 22.1253C83.5422 22.8098 83.5425 23.6788 83.3281 24.6101L82.913 26.414C82.909 26.4313 82.904 26.4487 82.898 26.4661V26.4661C82.606 27.3198 83.2959 27.6044 83.7926 26.8352L84.4066 25.8843C84.6641 25.4854 85.0397 25.3114 85.2551 25.4913L86.7979 26.7798C87.68 27.5165 89.2807 26.5577 90.1209 24.7894V24.7894C90.1878 24.6487 90.1704 24.5094 90.0828 24.4838L87.6563 23.7738C87.5168 23.733 87.3915 23.6615 87.284 23.5614V23.5614C86.5992 22.9235 86.471 21.5678 86.9465 20.103V20.103L88.317 16.4426Z" fill="white"/>
</g>
<defs>
<filter id="filter0_f_4_2034" x="23.8801" y="-4.15999" width="80.96" height="82.96" filterUnits="userSpaceOnUse" color-interpolation-filters="sRGB">
<feFlood flood-opacity="0" result="BackgroundImageFix"/>
<feBlend mode="normal" in="SourceGraphic" in2="BackgroundImageFix" result="shape"/>
<feGaussianBlur stdDeviation="6.24" result="effect1_foregroundBlur_4_2034"/>
</filter>
<linearGradient id="paint0_linear_4_2034" x1="84.0463" y1="17.6061" x2="90.4171" y2="24.7028" gradientUnits="userSpaceOnUse">
<stop stop-color="#FBAC80" stop-opacity="0"/>
<stop offset="1" stop-color="#FFDCC8"/>
</linearGradient>
<clipPath id="clip0_4_2034">
<rect width="104" height="104" fill="white"/>
</clipPath>
</defs>
</svg>
