<svg width="73" height="72" viewBox="0 0 73 72" fill="none" xmlns="http://www.w3.org/2000/svg">
<circle cx="37" cy="35" r="22" fill="#5640D8"/>
<g filter="url(#filter0_dd_2268_1134)">
<mask id="mask0_2268_1134" style="mask-type:alpha" maskUnits="userSpaceOnUse" x="26" y="22" width="21" height="24">
<path d="M41.6344 36.7429C44.8786 39.2536 46.0487 40.7152 46.2282 41.1321C46.4294 41.5049 46.4084 42.1745 44.7147 41.871C42.5976 41.4917 40.4155 41.2451 38.8317 41.456C37.7166 41.6046 34.3642 44.531 33.7062 44.8666C33.0483 45.2023 32.653 45.3376 32.255 45.1426C31.8571 44.9476 31.6568 44.685 31.4511 43.7617C31.2455 42.8385 32.1448 39.6602 30.7399 37.4914C30.1364 36.5597 29.3732 35.6636 28.6827 34.9526C27.7813 34.0247 26.2924 32.762 27.1264 31.773C27.9116 30.8418 31.0303 32.5343 33.808 32.9083C36.5857 33.2822 41.7308 24.1239 42.3834 23.1277C43.036 22.1315 43.434 22.3265 43.5667 22.3915C43.6993 22.4565 44.0999 22.9818 43.71 23.7777C43.32 24.5736 38.9734 34.4521 41.6344 36.7429Z" fill="#D9D9D9"/>
<path d="M41.6344 36.7429C44.8786 39.2536 46.0487 40.7152 46.2282 41.1321C46.4294 41.5049 46.4084 42.1745 44.7147 41.871C42.5976 41.4917 40.4155 41.2451 38.8317 41.456C37.7166 41.6046 34.3642 44.531 33.7062 44.8666C33.0483 45.2023 32.653 45.3376 32.255 45.1426C31.8571 44.9476 31.6568 44.685 31.4511 43.7617C31.2455 42.8385 32.1448 39.6602 30.7399 37.4914C30.1364 36.5597 29.3732 35.6636 28.6827 34.9526C27.7813 34.0247 26.2924 32.762 27.1264 31.773C27.9116 30.8418 31.0303 32.5343 33.808 32.9083C36.5857 33.2822 41.7308 24.1239 42.3834 23.1277C43.036 22.1315 43.434 22.3265 43.5667 22.3915C43.6993 22.4565 44.0999 22.9818 43.71 23.7777C43.32 24.5736 38.9734 34.4521 41.6344 36.7429Z" fill="url(#paint0_linear_2268_1134)"/>
</mask>
<g mask="url(#mask0_2268_1134)">
<path d="M41.6345 36.7426C44.8938 39.491 46.0254 40.5389 46.2283 41.1318C46.4295 41.5046 46.4085 42.1742 44.7148 41.8708C42.5977 41.4914 40.4156 41.2448 38.8318 41.4557C37.7166 41.6043 34.3643 44.5307 33.7063 44.8663C33.0484 45.202 32.6531 45.3373 32.2551 45.1423C31.8572 44.9473 31.6569 44.6847 31.4512 43.7614C31.2456 42.8382 32.1449 39.6599 30.74 37.4911C29.9613 36.5064 28.2037 34.2744 27.4024 33.2239C26.9217 32.5935 26.9005 31.9768 27.1265 31.7727C27.7167 31.2394 31.0304 32.534 33.8081 32.908C36.5858 33.2819 41.7309 24.1236 42.3835 23.1274C43.0361 22.1312 43.4341 22.3262 43.5667 22.3912C43.6994 22.4562 44.1 22.9815 43.7101 23.7774C43.3201 24.5733 38.9735 34.4518 41.6345 36.7426Z" fill="#D9D9D9"/>
<path d="M41.6345 36.7426C44.8938 39.491 46.0254 40.5389 46.2283 41.1318C46.4295 41.5046 46.4085 42.1742 44.7148 41.8708C42.5977 41.4914 40.4156 41.2448 38.8318 41.4557C37.7166 41.6043 34.3643 44.5307 33.7063 44.8663C33.0484 45.202 32.6531 45.3373 32.2551 45.1423C31.8572 44.9473 31.6569 44.6847 31.4512 43.7614C31.2456 42.8382 32.1449 39.6599 30.74 37.4911C29.9613 36.5064 28.2037 34.2744 27.4024 33.2239C26.9217 32.5935 26.9005 31.9768 27.1265 31.7727C27.7167 31.2394 31.0304 32.534 33.8081 32.908C36.5858 33.2819 41.7309 24.1236 42.3835 23.1274C43.0361 22.1312 43.4341 22.3262 43.5667 22.3912C43.6994 22.4562 44.1 22.9815 43.7101 23.7774C43.3201 24.5733 38.9735 34.4518 41.6345 36.7426Z" fill="white"/>
<path d="M49.8882 41.0752C48.7044 43.4913 41.8831 42.5779 34.6525 39.0352C27.4218 35.4925 22.5198 30.6619 23.7036 28.2458C24.8874 25.8297 31.7087 26.743 38.9393 30.2858C46.17 33.8285 51.072 38.6591 49.8882 41.0752Z" fill="#FAFAFA"/>
<path d="M49.8882 41.0752C48.7044 43.4913 41.8831 42.5779 34.6525 39.0352C27.4218 35.4925 22.5198 30.6619 23.7036 28.2458C24.8874 25.8297 31.7087 26.743 38.9393 30.2858C46.17 33.8285 51.072 38.6591 49.8882 41.0752Z" fill="#5740D7"/>
<path d="M54.154 40.7956C52.5595 44.05 44.8297 43.5342 36.8891 39.6436C28.9484 35.753 23.8039 29.9608 25.3984 26.7065C26.9929 23.4521 34.7226 23.9679 42.6633 27.8585C50.6039 31.7491 55.7485 37.5412 54.154 40.7956Z" fill="#FAFAFA"/>
</g>
</g>
<path d="M43.3277 36.9822C42.9492 36.9855 42.9264 36.6704 43.3008 36.6114V36.6114L44.4655 36.4793C45.7786 36.3304 46.4875 35.4318 45.7631 34.8345V34.8345L44.952 34.2582C44.799 34.1495 45.0496 33.984 45.2577 34.0563V34.0563V34.0563C45.8564 34.2663 46.3574 34.554 46.7266 34.8996L47.3065 35.4426C47.5664 35.686 47.9804 35.8562 48.4703 35.9212L49.4422 36.0502C49.4526 36.0516 49.4634 36.0524 49.4743 36.0527V36.0527C49.9603 36.063 50.0104 36.4563 49.5394 36.5633L48.756 36.7413C48.4953 36.8005 48.3252 36.9556 48.3505 37.1109L48.5264 38.1931C48.629 38.824 47.8053 39.4326 46.7053 39.5385V39.5385C46.5964 39.549 46.5086 39.499 46.5243 39.4354L46.8708 38.0248C46.8872 37.9578 46.8882 37.8906 46.8737 37.8252L46.8676 37.798C46.7644 37.3338 46.1417 36.995 45.3359 36.9646V36.9646L43.3277 36.9822Z" fill="white"/>
<defs>
<filter id="filter0_dd_2268_1134" x="14.8813" y="13.332" width="43.4335" height="46.9004" filterUnits="userSpaceOnUse" color-interpolation-filters="sRGB">
<feFlood flood-opacity="0" result="BackgroundImageFix"/>
<feColorMatrix in="SourceAlpha" type="matrix" values="0 0 0 0 0 0 0 0 0 0 0 0 0 0 0 0 0 0 127 0" result="hardAlpha"/>
<feOffset dy="3"/>
<feGaussianBlur stdDeviation="6"/>
<feComposite in2="hardAlpha" operator="out"/>
<feColorMatrix type="matrix" values="0 0 0 0 0.971094 0 0 0 0 0.478881 0 0 0 0 0.202011 0 0 0 0.45 0"/>
<feBlend mode="normal" in2="BackgroundImageFix" result="effect1_dropShadow_2268_1134"/>
<feColorMatrix in="SourceAlpha" type="matrix" values="0 0 0 0 0 0 0 0 0 0 0 0 0 0 0 0 0 0 127 0" result="hardAlpha"/>
<feOffset dy="1"/>
<feGaussianBlur stdDeviation="3"/>
<feComposite in2="hardAlpha" operator="out"/>
<feColorMatrix type="matrix" values="0 0 0 0 1 0 0 0 0 0.91539 0 0 0 0 0.867806 0 0 0 0.38 0"/>
<feBlend mode="normal" in2="effect1_dropShadow_2268_1134" result="effect2_dropShadow_2268_1134"/>
<feBlend mode="normal" in="SourceGraphic" in2="effect2_dropShadow_2268_1134" result="shape"/>
</filter>
<linearGradient id="paint0_linear_2268_1134" x1="43.6527" y1="22.4336" x2="43.8146" y2="52.6145" gradientUnits="userSpaceOnUse">
<stop stop-color="#CE5B35"/>
<stop offset="1" stop-color="#FCA079"/>
</linearGradient>
</defs>
</svg>
