<svg width="25" height="25" viewBox="0 0 25 25" fill="none" xmlns="http://www.w3.org/2000/svg">
<g clip-path="url(#clip0_2397_2822)">
<path d="M21.3384 3.66154C18.8981 1.22052 15.6985 0.000406265 12.4995 0.000406265C9.30068 0.000406265 6.10186 1.22052 3.66104 3.66134C-1.22002 8.5424 -1.22002 16.4572 3.66104 21.3383C6.10205 23.7793 9.30146 24.9994 12.5003 24.9994C15.6995 24.9994 18.8983 23.7793 21.3392 21.3391C26.2202 16.4574 26.2202 8.54259 21.3384 3.66154ZM20.2999 20.3002C18.2163 22.3828 15.4468 23.5297 12.5001 23.5297C9.554 23.5297 6.7835 22.3828 4.7001 20.2994C0.399512 15.9988 0.399512 9.00119 4.7001 4.7008C6.7835 2.61798 9.55322 1.47033 12.4995 1.47033C15.446 1.47033 18.2157 2.61798 20.2991 4.7008C24.5995 9.00119 24.6003 15.9988 20.2999 20.3002Z" fill="#FAFAFA"/>
<path d="M16.703 8.29785C16.6348 8.22958 16.5538 8.17542 16.4647 8.13846C16.3755 8.10151 16.2799 8.08249 16.1834 8.08249C16.0869 8.08249 15.9913 8.10151 15.9022 8.13846C15.813 8.17542 15.732 8.22958 15.6638 8.29785L12.5001 11.4609L9.33663 8.29785C9.04952 8.01074 8.58448 8.01074 8.29737 8.29785C8.01026 8.58496 8.01026 9.05 8.29737 9.33711L11.4609 12.5L8.29737 15.6629C8.22911 15.7311 8.17495 15.8121 8.138 15.9012C8.10105 15.9904 8.08203 16.0859 8.08203 16.1824C8.08203 16.2789 8.10105 16.3745 8.138 16.4636C8.17495 16.5528 8.22911 16.6337 8.29737 16.702C8.36554 16.7703 8.44655 16.8246 8.53574 16.8615C8.62493 16.8985 8.72055 16.9175 8.8171 16.9174C9.00499 16.9174 9.19308 16.8457 9.33663 16.702L12.5001 13.5391L15.6636 16.702C15.8069 16.8455 15.995 16.9174 16.1831 16.9174C16.3712 16.9174 16.5593 16.8457 16.7028 16.702C16.7711 16.6337 16.8253 16.5528 16.8622 16.4636C16.8992 16.3745 16.9182 16.2789 16.9182 16.1824C16.9182 16.0859 16.8992 15.9904 16.8622 15.9012C16.8253 15.8121 16.7711 15.7311 16.7028 15.6629L13.5394 12.5L16.7028 9.33711C16.7711 9.26889 16.8253 9.18789 16.8622 9.09874C16.8992 9.00959 16.9182 8.91403 16.9182 8.81752C16.9182 8.72101 16.8992 8.62545 16.8623 8.53628C16.8254 8.44711 16.7713 8.3661 16.703 8.29785Z" fill="#FAFAFA"/>
</g>
<defs>
<clipPath id="clip0_2397_2822">
<rect width="25" height="25" fill="white"/>
</clipPath>
</defs>
</svg>
